<svg width="1034" height="149" viewBox="0 0 1034 149" fill="none" xmlns="http://www.w3.org/2000/svg">
<path d="M1004.84 146L974.239 100.8L960.039 114.8V146H933.239V0H960.039V88.4L1002.24 41.4H1030.64L991.639 85.8L1033.44 146H1004.84Z" fill="white"/>
<path d="M920.295 64.4C912.162 64.4 904.895 66 898.495 69.2001C892.095 72.2667 887.495 76.7334 884.695 82.6001V146H857.895V41.2H882.495V63.6C886.229 56.4 890.962 50.7334 896.695 46.6001C902.429 42.4667 908.495 40.2001 914.895 39.8C916.362 39.8 917.495 39.8 918.295 39.8C919.095 39.8 919.762 39.8667 920.295 40V64.4Z" fill="white"/>
<path d="M737.852 115C737.852 108.2 739.718 102.267 743.452 97.1999C747.318 91.9999 752.652 87.9999 759.452 85.1999C766.252 82.3999 774.052 80.9999 782.852 80.9999C787.252 80.9999 791.718 81.3332 796.252 81.9999C800.785 82.6666 804.718 83.7332 808.052 85.1999V79.5999C808.052 72.9332 806.052 67.7999 802.052 64.1999C798.185 60.5999 792.385 58.7999 784.652 58.7999C778.918 58.7999 773.452 59.7999 768.252 61.7999C763.052 63.7999 757.585 66.7332 751.852 70.5999L743.252 52.9999C750.185 48.4666 757.252 45.0666 764.452 42.7999C771.785 40.5332 779.452 39.3999 787.452 39.3999C802.385 39.3999 813.985 43.1332 822.252 50.5999C830.652 58.0666 834.852 68.7332 834.852 82.5999V116C834.852 118.8 835.318 120.8 836.252 122C837.318 123.2 838.985 123.933 841.252 124.2V146C838.852 146.4 836.652 146.733 834.652 147C832.785 147.267 831.185 147.4 829.852 147.4C824.518 147.4 820.452 146.2 817.652 143.8C814.985 141.4 813.318 138.467 812.652 135L812.052 129.6C807.518 135.467 801.852 140 795.052 143.2C788.252 146.4 781.318 148 774.252 148C767.318 148 761.052 146.6 755.452 143.8C749.985 140.867 745.652 136.933 742.452 132C739.385 126.933 737.852 121.267 737.852 115ZM803.052 120.4C804.518 118.8 805.718 117.2 806.652 115.6C807.585 114 808.052 112.533 808.052 111.2V100.6C804.852 99.2666 801.385 98.2666 797.652 97.5999C793.918 96.7999 790.385 96.3999 787.052 96.3999C780.118 96.3999 774.385 97.9332 769.852 101C765.452 103.933 763.252 107.867 763.252 112.8C763.252 115.467 763.985 118 765.452 120.4C766.918 122.8 769.052 124.733 771.852 126.2C774.652 127.667 777.985 128.4 781.852 128.4C785.852 128.4 789.785 127.667 793.652 126.2C797.518 124.6 800.652 122.667 803.052 120.4Z" fill="white"/>
<path d="M626.409 146V4H686.609C693.143 4 699.143 5.33333 704.609 8C710.076 10.6667 714.809 14.2667 718.809 18.8C722.943 23.3333 726.143 28.4 728.409 34C730.676 39.6 731.809 45.3333 731.809 51.2C731.809 59.2 729.943 66.8 726.209 74C722.476 81.2 717.343 87.0667 710.809 91.6C704.276 96.1333 696.543 98.4 687.609 98.4H654.009V146H626.409ZM654.009 74.2H686.009C689.343 74.2 692.343 73.2667 695.009 71.4C697.676 69.5333 699.809 66.8667 701.409 63.4C703.009 59.8 703.809 55.7333 703.809 51.2C703.809 46.2667 702.876 42.0667 701.009 38.6C699.276 35.1333 696.943 32.5333 694.009 30.8C691.209 29.0667 688.143 28.2 684.809 28.2H654.009V74.2Z" fill="white"/>
<path d="M457.719 115C457.719 108.2 459.585 102.267 463.319 97.1999C467.185 91.9999 472.519 87.9999 479.319 85.1999C486.119 82.3999 493.919 80.9999 502.719 80.9999C507.119 80.9999 511.585 81.3332 516.119 81.9999C520.652 82.6666 524.585 83.7332 527.919 85.1999V79.5999C527.919 72.9332 525.919 67.7999 521.919 64.1999C518.052 60.5999 512.252 58.7999 504.519 58.7999C498.785 58.7999 493.319 59.7999 488.119 61.7999C482.919 63.7999 477.452 66.7332 471.719 70.5999L463.119 52.9999C470.052 48.4666 477.119 45.0666 484.319 42.7999C491.652 40.5332 499.319 39.3999 507.319 39.3999C522.252 39.3999 533.852 43.1332 542.119 50.5999C550.519 58.0666 554.719 68.7332 554.719 82.5999V116C554.719 118.8 555.185 120.8 556.119 122C557.185 123.2 558.852 123.933 561.119 124.2V146C558.719 146.4 556.519 146.733 554.519 147C552.652 147.267 551.052 147.4 549.719 147.4C544.385 147.4 540.319 146.2 537.519 143.8C534.852 141.4 533.185 138.467 532.519 135L531.919 129.6C527.385 135.467 521.719 140 514.919 143.2C508.119 146.4 501.185 148 494.119 148C487.185 148 480.919 146.6 475.319 143.8C469.852 140.867 465.519 136.933 462.319 132C459.252 126.933 457.719 121.267 457.719 115ZM522.919 120.4C524.385 118.8 525.585 117.2 526.519 115.6C527.452 114 527.919 112.533 527.919 111.2V100.6C524.719 99.2666 521.252 98.2666 517.519 97.5999C513.785 96.7999 510.252 96.3999 506.919 96.3999C499.985 96.3999 494.252 97.9332 489.719 101C485.319 103.933 483.119 107.867 483.119 112.8C483.119 115.467 483.852 118 485.319 120.4C486.785 122.8 488.919 124.733 491.719 126.2C494.519 127.667 497.852 128.4 501.719 128.4C505.719 128.4 509.652 127.667 513.519 126.2C517.385 124.6 520.519 122.667 522.919 120.4Z" fill="white"/>
<path d="M443.616 146H416.816V87.1999C416.816 78.7999 415.349 72.6666 412.416 68.7999C409.482 64.9332 405.416 62.9999 400.216 62.9999C396.616 62.9999 392.949 63.9332 389.216 65.7999C385.616 67.6666 382.349 70.2666 379.416 73.5999C376.482 76.7999 374.349 80.5332 373.016 84.7999V146H346.216V41.1999H370.416V60.5999C373.082 56.0666 376.482 52.2666 380.616 49.1999C384.749 45.9999 389.482 43.5999 394.816 41.9999C400.282 40.2666 406.016 39.3999 412.016 39.3999C418.549 39.3999 423.882 40.5999 428.016 42.9999C432.282 45.2666 435.482 48.3999 437.616 52.3999C439.882 56.2666 441.416 60.6666 442.216 65.5999C443.149 70.5332 443.616 75.5332 443.616 80.5999V146Z" fill="white"/>
<path d="M324.913 146H298.113V87.1999C298.113 78.7999 296.646 72.6666 293.713 68.7999C290.779 64.9332 286.713 62.9999 281.513 62.9999C277.913 62.9999 274.246 63.9332 270.513 65.7999C266.913 67.6666 263.646 70.2666 260.713 73.5999C257.779 76.7999 255.646 80.5332 254.313 84.7999V146H227.513V41.1999H251.713V60.5999C254.379 56.0666 257.779 52.2666 261.913 49.1999C266.046 45.9999 270.779 43.5999 276.113 41.9999C281.579 40.2666 287.313 39.3999 293.313 39.3999C299.846 39.3999 305.179 40.5999 309.313 42.9999C313.579 45.2666 316.779 48.3999 318.913 52.3999C321.179 56.2666 322.713 60.6666 323.513 65.5999C324.446 70.5332 324.913 75.5332 324.913 80.5999V146Z" fill="white"/>
<path d="M104.88 106.8V41.2H131.68V101C131.68 109 133.146 115.067 136.08 119.2C139.013 123.2 143.346 125.2 149.08 125.2C152.546 125.2 155.946 124.533 159.28 123.2C162.746 121.733 165.88 119.6 168.68 116.8C171.613 114 174.08 110.467 176.08 106.2V41.2H202.88V116C202.88 118.8 203.346 120.8 204.28 122C205.346 123.2 207.013 123.933 209.28 124.2V146C206.613 146.4 204.346 146.667 202.48 146.8C200.746 147.067 199.146 147.2 197.68 147.2C192.88 147.2 188.946 146.133 185.88 144C182.946 141.733 181.213 138.667 180.68 134.8L180.08 126.4C175.413 133.467 169.413 138.867 162.08 142.6C154.746 146.2 146.68 148 137.88 148C127.08 148 118.88 144.533 113.28 137.6C107.68 130.533 104.88 120.267 104.88 106.8Z" fill="white"/>
<path d="M6.60002 117C8.33336 118.2 11.4 119.667 15.8 121.4C20.2 123 25.4 123.8 31.4 123.8C36.6 123.8 40.8667 122.933 44.2 121.2C47.5334 119.333 50.0667 116.6 51.8 113C53.6667 109.4 54.8667 104.733 55.4 99C56.0667 93.2667 56.4 86.4 56.4 78.4V4H84V76.2C84 86.8667 83.4 96.6 82.2 105.4C81 114.2 78.6667 121.8 75.2 128.2C71.7334 134.6 66.4667 139.533 59.4 143C52.4667 146.467 43.2 148.2 31.6 148.2C25.2 148.2 19.4667 147.467 14.4 146C9.33336 144.533 4.66669 142.333 0.400024 139.4L6.60002 117Z" fill="white"/>
</svg>
