<svg width="695" height="138" viewBox="0 0 695 138" fill="none" xmlns="http://www.w3.org/2000/svg">
<path d="M674.333 36.1999C660.733 42.4665 645.8 62.5999 634.067 90.3332C628.333 103.933 620.333 114.333 612.067 118.467C606.067 121.533 603 121 603 116.867C603 113.667 606.067 109.133 615.133 98.5999C623.8 88.8665 623.8 85.2665 615.667 79.6665C608.867 74.9999 605.267 70.3332 605.933 66.8665C606.2 65.6665 605.667 64.3332 605 64.0665C604.2 63.7999 600.6 69.9332 597.133 77.6665C584.733 104.6 565 126.2 559.133 119.133C556.067 115.4 561.933 98.9999 571.533 84.8665C576.2 78.0665 576.2 77.6665 573.533 77.2665C571.933 76.9999 569.4 78.0665 567.533 79.7999L564.467 82.7332L562.867 79.1332C559.667 72.3332 549.267 72.4665 538.867 79.2665C523.133 89.6665 514.733 116.333 525 123.133C530.467 126.733 537 124.6 545 116.467L552.067 109.4L551.4 113.8C550.867 116.733 551.4 119.4 552.867 121.667C560.467 133.133 583 114.333 598.333 83.6665C600.333 79.6665 602.2 76.1999 602.333 75.9332C603.133 74.9999 612.2 85.6665 612.333 87.3999C612.333 88.4665 609.667 92.5999 606.467 96.7332C599.4 105.933 596.333 111.8 596.333 116.333C596.333 120.333 600.6 125 604.333 125C608.733 125 616.733 120.333 622.867 114.2L628.467 108.467L627.667 115.133C627 119.8 627.4 122.333 628.733 124.2C631.267 127.667 633.133 126.067 633.4 120.333C633.533 117.667 635.267 112.467 637.267 108.6C641.533 100.867 657 84.4665 661.533 82.9999C669.533 80.4665 667 89.6665 657.667 96.9999C653.667 100.2 652.333 100.733 652.333 99.1332C652.333 96.0665 648.733 96.5999 646.867 99.9332C644.6 104.067 647.533 115.8 651.933 120.2C655.8 124.067 660.733 124.6 667.4 121.8C671.933 119.933 685 106.467 688.333 100.333C690.733 95.9332 688.6 94.0665 685.8 98.3332C676.333 112.467 666.067 120.867 660.333 119C657.133 117.933 653.667 111.8 653.667 107.133C653.667 104.867 655 103 658.067 101.133C668.333 94.8665 675.8 83.2665 673.533 77.2665C672.867 75.6665 671.533 74.3332 670.333 74.3332C663.933 74.3332 648.2 86.8665 640.067 98.4665C637 102.733 634.2 106.067 633.933 105.667C633.533 105.267 637.267 96.9999 642.067 87.3999C657 57.6665 675 36.9999 686.2 36.9999C688.6 36.9999 691.133 37.6665 692.067 38.5999C694.733 41.2665 695.533 38.4665 693 35.6665C689.8 32.0665 682.733 32.1999 674.333 36.1999ZM559.8 81.6665C561.8 83.6665 562.733 85.6665 562.2 86.7332C557.8 94.3332 545.933 109.533 540.467 114.733C528.867 125.533 522.733 122.067 528.2 107.533C533.133 94.7332 547.533 78.3332 553.933 78.3332C555.267 78.3332 557.933 79.7999 559.8 81.6665Z" fill="black"/>
<path d="M419.267 1.66667C390.733 8.06667 395.4 24.7333 427.4 29.9333C435.267 31.1333 433.267 28.3333 424.2 25.6667C414.333 22.6 409.667 19.2667 409.667 15C409.667 7.66667 422.867 3.53334 446.333 3.40001C461 3.40001 481.133 5.40001 482.733 7.00001C483 7.13334 480.733 10.6 477.8 14.4667C469.933 24.8667 447.8 62.2 440.333 77.6667C423.267 112.867 420.733 137 434.067 137C438.467 137 441.667 133.8 441.667 129.4V125.933L438.2 129.133C434.867 132.333 434.733 132.333 432.867 129.667C428.6 124.067 433.4 106.733 445.8 82.2C455.533 63.1333 466.467 45.9333 481.933 25.4C489.133 15.9333 491 12.6 490.333 10.3333C489.533 7.80001 489.8 7.66667 493.267 8.46667C500.733 10.2 516.333 17.2667 521.267 21.1333C535.133 32.2 536.733 48.6 524.733 59.9333C519.933 64.6 508.067 69.8 498.333 71.5333C486.2 73.8 464.2 73.4 460.6 70.8667C457.933 69 457.667 69 457.667 71.4C457.667 75.2667 464.067 77 478.867 77C519.133 76.8667 543 63.1333 541.4 40.8667C540.067 22.7333 523.667 10.8667 490.2 3.66667C472.867 -0.0666585 431.933 -1.26666 419.267 1.66667Z" fill="black"/>
<path d="M317 76.5999C310.467 79.9333 303.267 87.6666 297.4 97.5333C284.067 120.067 269.667 125.667 269.667 108.333C269.667 102.6 274.333 88.4666 277.8 83.5333C281.133 78.8666 281 76.9999 277.533 76.9999C271.267 76.9999 253.667 92.9999 246.467 105.267C244.467 108.867 242.6 111.667 242.333 111.667C240.6 111.667 247 98.0666 253 88.9999C258.333 80.8666 259.667 77.9333 258.2 77.3999C255.667 76.4666 250.067 80.3333 247.267 85.1333C246.067 87.2666 242.867 92.7333 240.333 97.2666C233.667 109 224.333 118.333 219.133 118.333C214.333 118.333 212.333 115.4 212.333 108.333C212.333 102.6 217 88.4666 220.467 83.5333C223.8 78.8666 223.667 76.9999 220.2 76.9999C213.933 76.9999 196.333 92.9999 189.133 105.267C187.133 108.867 185.267 111.667 185 111.667C183.267 111.667 189.667 98.0666 195.667 88.9999C201.267 80.4666 202.333 78.0666 200.733 77.3999C197.4 76.0666 191.933 81.5333 186.333 91.5333C175.4 111.133 163.4 122.733 157.267 119.4C155.267 118.333 154.867 117.133 155.4 113.4C156.333 107.933 162.867 93.5333 168.467 84.8666C173 77.6666 173.133 76.9999 169.933 76.9999C166.467 76.9999 161.8 82.5999 154.2 95.5333C145.667 110.2 136.6 119.667 131.133 119.667C128.467 119.667 126.867 118.867 126.333 117.133C125.267 113.533 131.4 97.7999 138.333 86.9999C143.8 78.3333 143.933 77.6666 141.533 77.2666C137.667 76.5999 133.267 81.1333 127.8 91.6666C119.533 107.4 117.667 120.6 123.133 124.067C127.133 126.6 135 123.8 141.8 117.4L148.333 111.267V115.133C148.333 127.8 161.133 128.067 173 115.8L178.333 110.2L179 116.467C179.4 119.933 180.333 123 181.133 123.267C182.067 123.533 185.133 119.267 188.2 113.8C193.267 104.6 207.133 87.6666 209.8 87.6666C210.333 87.6666 209.933 89.7999 208.867 92.3333C206.2 98.7333 205.133 111.533 206.867 115.933C207.533 117.933 209.8 120.6 211.667 121.8C216.6 125 224.733 122.333 231.267 115.4L236.2 110.067L236.6 116.467C236.867 119.933 237.667 123 238.467 123.267C239.4 123.533 242.467 119.267 245.533 113.8C250.6 104.6 264.467 87.6666 267.133 87.6666C267.667 87.6666 267.267 89.7999 266.2 92.3333C263.533 98.7333 262.467 111.533 264.2 115.933C264.867 117.933 267.133 120.6 269 121.8C273.933 125 282.2 122.333 288.333 115.667L292.867 110.6L295 116.733C298.6 127.933 307.267 127.8 318.467 116.6L325.4 109.667L325.267 115.267C325.267 118.333 326.067 121.8 327 123C329.8 126.333 336.733 125.4 343.8 120.6C350.6 115.933 364.067 98.9999 362.333 97.2666C361.8 96.7333 360.067 98.0666 358.467 100.333C352.733 108.333 342.733 118.2 338.867 119.533C333.8 121.267 330.6 118.467 331.8 113.267C333 107.8 342.467 88.1999 346.333 83.1333C348.2 80.7333 349.667 78.3333 349.667 77.9333C349.667 75.9333 344.467 77.1333 341.133 79.7999C339.267 81.2666 337.667 81.9333 337.667 81.1333C337.667 80.3333 336.467 78.4666 335 76.9999C331.667 73.6666 322.867 73.5333 317 76.5999ZM333.667 81.5333L336.733 84.8666L333.267 90.5999C328.067 99.3999 313 117.533 309.267 119.533C300.2 124.333 297.533 115.8 304.2 102.733C310.6 89.9333 322.2 78.3333 328.467 78.3333C329.533 78.3333 331.933 79.7999 333.667 81.5333Z" fill="black"/>
<path d="M126.333 10.6C124.867 11.4 123.533 12.2 123.4 12.3333C123.133 12.4667 121.533 18.3333 119.667 25.4C115.933 39.9333 108.867 58.2 103.667 67.1333C100.2 73 100.2 73 92.6 73C81.2667 73 63.6667 75.4 52.7334 78.4667C21.8 87 0.333374 106.067 0.333374 124.867C0.333374 130.333 0.866707 131.933 3.80004 134.2C11.5334 140.333 29.8 138.467 47.8 129.8C66.2 121 88.6 101.267 101.133 83.1333L106.333 75.5333L117.533 76.4667C126.733 77.1333 128.6 77 128.067 75.5333C127.667 74.2 124.6 73.5333 118.067 73.2667L108.6 72.8667L115.667 58.6C122.867 43.8 126.867 33 130.2 18.7333C132.467 8.73333 131.8 7.53333 126.333 10.6ZM97.6667 76.8667C97.6667 79.1333 85 95.1333 76.4667 103.667C59.2667 120.867 38.8667 131.8 24.0667 131.8C9.26671 131.933 5.66671 124.733 13.6667 110.867C23.6667 93.2667 49.9334 80.2 81 77.1333C98.0667 75.5333 97.6667 75.5333 97.6667 76.8667Z" fill="black"/>
<path d="M103 4.46667C89.8 5.93333 77.8 8.2 73.2667 9.93333C67.2667 12.3333 63 17.4 63 22.0667C63 25.6667 69 33 71.9333 33C74.6 33 74.0667 31.6667 70.3333 28.7333C61 21.4 72.7333 13.5333 98.8667 9.66667C124.6 5.8 142.733 7.53333 146.867 14.4667C149.533 18.8667 151 18.2 151 12.7333C151 6.73333 144.6 4.73333 124.333 4.33333C115.133 4.06667 105.533 4.2 103 4.46667Z" fill="black"/>
</svg>
